STARTFONT 2.1
FONT -DEC-Terminal-Bold-R-Narrow--28-280-75-75-C-120-iso8859-9
SIZE 28 75 75
FONTBOUNDINGBOX 12 30 0 -6

STARTPROPERTIES 24
FOUNDRY "Monotype"
FAMILY_NAME "VT"
WEIGHT_NAME "Bold"
SLANT "R"
SETWIDTH_NAME "Narrow"
ADD_STYLE_NAME ""
PIXEL_SIZE 28
POINT_SIZE 280
RESOLUTION_X 75
RESOLUTION_Y 75
SPACING "C"
AVERAGE_WIDTH 120
CHARSET_REGISTRY "iso8859"
CHARSET_ENCODING "9"
FACE_NAME "VT Narrow Bold ISO Latin5"
_DEC_DEVICE_FONTNAMES "PS=vt-narrow-bold-isolatin5"
COPYRIGHT "Copyright (c) 1993 Monotype Typography Ltd."
CAP_HEIGHT 17
X_HEIGHT 12
WEIGHT 10
QUAD_WIDTH 12
DEFAULT_CHAR 160
FONT_DESCENT 6
FONT_ASCENT 24
ENDPROPERTIES

CHARS 191

STARTCHAR space
ENCODING 32
SWIDTH 361 0
DWIDTH 12 0
BBX 12 30 0 -6
BITMAP
0000
0000
0000
0000
0000
0000
0000
0000
0000
0000
0000
0000
0000
0000
0000
0000
0000
0000
0000
0000
0000
0000
0000
0000
0000
0000
0000
0000
0000
0000
ENDCHAR

STARTCHAR exclam
ENCODING 33
SWIDTH 361 0
DWIDTH 12 0
BBX 12 30 0 -6
BITMAP
0000
0000
0000
0000
0000
0000
0000
0000
0E00
0E00
0E00
0E00
0E00
0E00
0E00
0E00
0E00
0E00
0E00
0E00
0000
0000
0E00
0E00
0000
0000
0000
0000
0000
0000
ENDCHAR

STARTCHAR quotedbl
ENCODING 34
SWIDTH 361 0
DWIDTH 12 0
BBX 12 30 0 -6
BITMAP
0000
0000
0000
0000
0000
0000
39C0
39C0
39C0
39C0
39C0
39C0
0000
0000
0000
0000
0000
0000
0000
0000
0000
0000
0000
0000
0000
0000
0000
0000
0000
0000
ENDCHAR

STARTCHAR numbersign
ENCODING 35
SWIDTH 361 0
DWIDTH 12 0
BBX 12 30 0 -6
BITMAP
0000
0000
0000
0000
0000
0000
39C0
39C0
39C0
39C0
7FE0
7FE0
7FE0
39C0
39C0
7FE0
7FE0
7FE0
39C0
39C0
39C0
39C0
0000
0000
0000
0000
0000
0000
0000
0000
ENDCHAR

STARTCHAR dollar
ENCODING 36
SWIDTH 361 0
DWIDTH 12 0
BBX 12 30 0 -6
BITMAP
0000
0000
0000
0000
0000
0000
0000
0000
0600
0600
1F80
3FC0
7FE0
76E0
7E00
3F80
1FC0
07E0
76E0
7FE0
3FC0
1F80
0600
0600
0000
0000
0000
0000
0000
0000
ENDCHAR

STARTCHAR percent
ENCODING 37
SWIDTH 361 0
DWIDTH 12 0
BBX 12 30 0 -6
BITMAP
0000
0000
0000
0000
0000
0000
0000
0000
1800
3C00
7670
76F0
3DF0
1BE0
07C0
0F80
1F00
3E00
7D80
7BC0
7760
0760
03C0
0180
0000
0000
0000
0000
0000
0000
ENDCHAR

STARTCHAR ampersand
ENCODING 38
SWIDTH 361 0
DWIDTH 12 0
BBX 12 30 0 -6
BITMAP
0000
0000
0000
0000
0000
0000
0000
0000
0F00
1F80
1980
1980
1980
1F80
0F00
1E00
3F60
7BE0
71C0
7180
7380
7FC0
3EE0
1E60
0000
0000
0000
0000
0000
0000
ENDCHAR

STARTCHAR quoteright
ENCODING 39
SWIDTH 361 0
DWIDTH 12 0
BBX 12 30 0 -6
BITMAP
0000
0000
0000
0000
0000
0000
0700
0700
0700
0E00
0C00
0000
0000
0000
0000
0000
0000
0000
0000
0000
0000
0000
0000
0000
0000
0000
0000
0000
0000
0000
ENDCHAR

STARTCHAR parenleft
ENCODING 40
SWIDTH 361 0
DWIDTH 12 0
BBX 12 30 0 -6
BITMAP
0000
0000
0000
0000
0000
0000
01C0
0380
0700
0700
0E00
0E00
1C00
1C00
1C00
1C00
1C00
1C00
1C00
1C00
0E00
0E00
0700
0700
0380
01C0
0000
0000
0000
0000
ENDCHAR

STARTCHAR parenright
ENCODING 41
SWIDTH 361 0
DWIDTH 12 0
BBX 12 30 0 -6
BITMAP
0000
0000
0000
0000
0000
0000
1C00
0E00
0700
0700
0380
0380
01C0
01C0
01C0
01C0
01C0
01C0
01C0
01C0
0380
0380
0700
0700
0E00
1C00
0000
0000
0000
0000
ENDCHAR

STARTCHAR asterisk
ENCODING 42
SWIDTH 354 0
DWIDTH 12 0
BBX 12 30 0 -6
BITMAP
0000
0000
0000
0000
0000
0000
0000
0000
0600
36C0
3FC0
3FC0
0F00
0F00
3FC0
3FC0
36C0
0600
0000
0000
0000
0000
0000
0000
0000
0000
0000
0000
0000
0000
ENDCHAR

STARTCHAR plus
ENCODING 43
SWIDTH 361 0
DWIDTH 12 0
BBX 12 30 0 -6
BITMAP
0000
0000
0000
0000
0000
0000
0000
0000
0000
0000
0700
0700
0700
0700
7FF0
7FF0
7FF0
0700
0700
0700
0700
0000
0000
0000
0000
0000
0000
0000
0000
0000
ENDCHAR

STARTCHAR comma
ENCODING 44
SWIDTH 361 0
DWIDTH 12 0
BBX 12 30 0 -6
BITMAP
0000
0000
0000
0000
0000
0000
0000
0000
0000
0000
0000
0000
0000
0000
0000
0000
0000
0000
0000
0000
0000
0700
0700
0700
0E00
1C00
0000
0000
0000
0000
ENDCHAR

STARTCHAR minus
ENCODING 45
SWIDTH 361 0
DWIDTH 12 0
BBX 12 30 0 -6
BITMAP
0000
0000
0000
0000
0000
0000
0000
0000
0000
0000
0000
0000
0000
0000
7FE0
7FE0
7FE0
0000
0000
0000
0000
0000
0000
0000
0000
0000
0000
0000
0000
0000
ENDCHAR

STARTCHAR period
ENCODING 46
SWIDTH 361 0
DWIDTH 12 0
BBX 12 30 0 -6
BITMAP
0000
0000
0000
0000
0000
0000
0000
0000
0000
0000
0000
0000
0000
0000
0000
0000
0000
0000
0000
0000
0000
0E00
0E00
0E00
0000
0000
0000
0000
0000
0000
ENDCHAR

STARTCHAR slash
ENCODING 47
SWIDTH 361 0
DWIDTH 12 0
BBX 12 30 0 -6
BITMAP
0000
0000
0000
0000
0000
0000
0000
0000
00E0
00E0
01C0
01C0
0380
0380
0700
0700
0E00
0E00
1C00
1C00
3800
3800
7000
7000
0000
0000
0000
0000
0000
0000
ENDCHAR

STARTCHAR zero
ENCODING 48
SWIDTH 361 0
DWIDTH 12 0
BBX 12 30 0 -6
BITMAP
0000
0000
0000
0000
0000
0000
0000
0000
0F00
1F80
39C0
39C0
70E0
70E0
70E0
70E0
70E0
70E0
70E0
70E0
39C0
39C0
1F80
0F00
0000
0000
0000
0000
0000
0000
ENDCHAR

STARTCHAR one
ENCODING 49
SWIDTH 361 0
DWIDTH 12 0
BBX 12 30 0 -6
BITMAP
0000
0000
0000
0000
0000
0000
0000
0000
0600
0E00
1E00
3E00
7E00
6E00
0E00
0E00
0E00
0E00
0E00
0E00
0E00
0E00
7FE0
7FE0
0000
0000
0000
0000
0000
0000
ENDCHAR

STARTCHAR two
ENCODING 50
SWIDTH 361 0
DWIDTH 12 0
BBX 12 30 0 -6
BITMAP
0000
0000
0000
0000
0000
0000
0000
0000
1F80
3FC0
70E0
70E0
70E0
00E0
01E0
03C0
0780
0F00
1E00
3C00
7800
78E0
7FE0
7FE0
0000
0000
0000
0000
0000
0000
ENDCHAR

STARTCHAR three
ENCODING 51
SWIDTH 361 0
DWIDTH 12 0
BBX 12 30 0 -6
BITMAP
0000
0000
0000
0000
0000
0000
0000
0000
1F80
3FC0
71E0
70E0
00E0
01E0
07C0
07C0
01E0
00E0
00E0
00E0
70E0
71E0
3FC0
1F80
0000
0000
0000
0000
0000
0000
ENDCHAR

STARTCHAR four
ENCODING 52
SWIDTH 361 0
DWIDTH 12 0
BBX 12 30 0 -6
BITMAP
0000
0000
0000
0000
0000
0000
0000
0000
03C0
03C0
07C0
07C0
0FC0
0FC0
1DC0
19C0
39C0
39C0
7FE0
7FE0
01C0
01C0
01C0
01C0
0000
0000
0000
0000
0000
0000
ENDCHAR

STARTCHAR five
ENCODING 53
SWIDTH 361 0
DWIDTH 12 0
BBX 12 30 0 -6
BITMAP
0000
0000
0000
0000
0000
0000
0000
0000
7FE0
7FE0
7000
7000
7000
7F80
7FC0
71E0
60E0
00E0
00E0
00E0
70E0
71E0
3FC0
1F80
0000
0000
0000
0000
0000
0000
ENDCHAR

STARTCHAR six
ENCODING 54
SWIDTH 361 0
DWIDTH 12 0
BBX 12 30 0 -6
BITMAP
0000
0000
0000
0000
0000
0000
0000
0000
1F80
3FC0
78E0
70E0
7000
7F80
7FC0
79E0
70E0
70E0
70E0
70E0
70E0
79E0
3FC0
1F80
0000
0000
0000
0000
0000
0000
ENDCHAR

STARTCHAR seven
ENCODING 55
SWIDTH 361 0
DWIDTH 12 0
BBX 12 30 0 -6
BITMAP
0000
0000
0000
0000
0000
0000
0000
0000
7FE0
7FE0
00E0
00E0
01C0
01C0
0380
0380
0700
0700
0E00
0E00
1C00
1C00
3800
3800
0000
0000
0000
0000
0000
0000
ENDCHAR

STARTCHAR eight
ENCODING 56
SWIDTH 361 0
DWIDTH 12 0
BBX 12 30 0 -6
BITMAP
0000
0000
0000
0000
0000
0000
0000
0000
1F80
3FC0
79E0
70E0
70E0
79E0
3FC0
3FC0
79E0
70E0
70E0
70E0
70E0
79E0
3FC0
1F80
0000
0000
0000
0000
0000
0000
ENDCHAR

STARTCHAR nine
ENCODING 57
SWIDTH 361 0
DWIDTH 12 0
BBX 12 30 0 -6
BITMAP
0000
0000
0000
0000
0000
0000
0000
0000
1F80
3FC0
79E0
70E0
70E0
70E0
70E0
79E0
3FE0
1FE0
00E0
00E0
70E0
71E0
3FC0
1F80
0000
0000
0000
0000
0000
0000
ENDCHAR

STARTCHAR colon
ENCODING 58
SWIDTH 361 0
DWIDTH 12 0
BBX 12 30 0 -6
BITMAP
0000
0000
0000
0000
0000
0000
0000
0000
0000
0000
0000
0000
0000
0000
0E00
0E00
0E00
0000
0000
0000
0000
0E00
0E00
0E00
0000
0000
0000
0000
0000
0000
ENDCHAR

STARTCHAR semicolon
ENCODING 59
SWIDTH 361 0
DWIDTH 12 0
BBX 12 30 0 -6
BITMAP
0000
0000
0000
0000
0000
0000
0000
0000
0000
0000
0000
0000
0000
0000
0E00
0E00
0E00
0000
0000
0000
0000
0E00
0E00
0E00
1C00
3800
0000
0000
0000
0000
ENDCHAR

STARTCHAR less
ENCODING 60
SWIDTH 361 0
DWIDTH 12 0
BBX 12 30 0 -6
BITMAP
0000
0000
0000
0000
0000
0000
0000
0000
0000
0000
01E0
03C0
0780
0F00
1E00
3C00
7800
7800
3C00
1E00
0F00
0780
03C0
01E0
0000
0000
0000
0000
0000
0000
ENDCHAR

STARTCHAR equal
ENCODING 61
SWIDTH 361 0
DWIDTH 12 0
BBX 12 30 0 -6
BITMAP
0000
0000
0000
0000
0000
0000
0000
0000
0000
0000
0000
0000
7FE0
7FE0
7FE0
0000
0000
7FE0
7FE0
7FE0
0000
0000
0000
0000
0000
0000
0000
0000
0000
0000
ENDCHAR

STARTCHAR greater
ENCODING 62
SWIDTH 361 0
DWIDTH 12 0
BBX 12 30 0 -6
BITMAP
0000
0000
0000
0000
0000
0000
0000
0000
0000
0000
7800
3C00
1E00
0F00
0780
03C0
01E0
01E0
03C0
0780
0F00
1E00
3C00
7800
0000
0000
0000
0000
0000
0000
ENDCHAR

STARTCHAR question
ENCODING 63
SWIDTH 361 0
DWIDTH 12 0
BBX 12 30 0 -6
BITMAP
0000
0000
0000
0000
0000
0000
0000
0000
1F80
3FC0
79E0
70E0
70E0
01E0
03C0
0780
0F00
0E00
0E00
0E00
0000
0E00
0E00
0E00
0000
0000
0000
0000
0000
0000
ENDCHAR

STARTCHAR at
ENCODING 64
SWIDTH 361 0
DWIDTH 12 0
BBX 12 30 0 -6
BITMAP
0000
0000
0000
0000
0000
0000
0000
0000
1F80
3FC0
79E0
70F0
73F0
77F0
7670
7670
7670
77F0
73F0
7000
7000
7800
3F80
1F80
0000
0000
0000
0000
0000
0000
ENDCHAR

STARTCHAR A
ENCODING 65
SWIDTH 361 0
DWIDTH 12 0
BBX 12 30 0 -6
BITMAP
0000
0000
0000
0000
0000
0000
0000
0000
0600
0600
0F00
1F80
1F80
39C0
39C0
30C0
70E0
7FE0
7FE0
70E0
70E0
70E0
70E0
70E0
0000
0000
0000
0000
0000
0000
ENDCHAR

STARTCHAR B
ENCODING 66
SWIDTH 361 0
DWIDTH 12 0
BBX 12 30 0 -6
BITMAP
0000
0000
0000
0000
0000
0000
0000
0000
7F80
7FC0
71E0
70E0
70E0
71E0
7FC0
7FC0
71E0
70E0
70E0
70E0
70E0
71E0
7FC0
7F80
0000
0000
0000
0000
0000
0000
ENDCHAR

STARTCHAR C
ENCODING 67
SWIDTH 361 0
DWIDTH 12 0
BBX 12 30 0 -6
BITMAP
0000
0000
0000
0000
0000
0000
0000
0000
1F80
3FC0
79E0
70E0
7000
7000
7000
7000
7000
7000
7000
7000
70E0
79E0
3FC0
1F80
0000
0000
0000
0000
0000
0000
ENDCHAR

STARTCHAR D
ENCODING 68
SWIDTH 361 0
DWIDTH 12 0
BBX 12 30 0 -6
BITMAP
0000
0000
0000
0000
0000
0000
0000
0000
7F80
7FC0
71E0
70E0
70E0
70E0
70E0
70E0
70E0
70E0
70E0
70E0
70E0
71E0
7FC0
7F80
0000
0000
0000
0000
0000
0000
ENDCHAR

STARTCHAR E
ENCODING 69
SWIDTH 361 0
DWIDTH 12 0
BBX 12 30 0 -6
BITMAP
0000
0000
0000
0000
0000
0000
0000
0000
7FE0
7FE0
7000
7000
7000
7000
7000
7F80
7F80
7000
7000
7000
7000
7000
7FE0
7FE0
0000
0000
0000
0000
0000
0000
ENDCHAR

STARTCHAR F
ENCODING 70
SWIDTH 361 0
DWIDTH 12 0
BBX 12 30 0 -6
BITMAP
0000
0000
0000
0000
0000
0000
0000
0000
7FE0
7FE0
7000
7000
7000
7000
7000
7F00
7F00
7000
7000
7000
7000
7000
7000
7000
0000
0000
0000
0000
0000
0000
ENDCHAR

STARTCHAR G
ENCODING 71
SWIDTH 361 0
DWIDTH 12 0
BBX 12 30 0 -6
BITMAP
0000
0000
0000
0000
0000
0000
0000
0000
1F80
3FC0
79E0
70E0
7000
7000
7000
71E0
71E0
70E0
70E0
70E0
70E0
78E0
3FE0
1FE0
0000
0000
0000
0000
0000
0000
ENDCHAR

STARTCHAR H
ENCODING 72
SWIDTH 361 0
DWIDTH 12 0
BBX 12 30 0 -6
BITMAP
0000
0000
0000
0000
0000
0000
0000
0000
70E0
70E0
70E0
70E0
70E0
70E0
70E0
7FE0
7FE0
70E0
70E0
70E0
70E0
70E0
70E0
70E0
0000
0000
0000
0000
0000
0000
ENDCHAR

STARTCHAR I
ENCODING 73
SWIDTH 361 0
DWIDTH 12 0
BBX 12 30 0 -6
BITMAP
0000
0000
0000
0000
0000
0000
0000
0000
3FE0
3FE0
0700
0700
0700
0700
0700
0700
0700
0700
0700
0700
0700
0700
3FE0
3FE0
0000
0000
0000
0000
0000
0000
ENDCHAR

STARTCHAR J
ENCODING 74
SWIDTH 361 0
DWIDTH 12 0
BBX 12 30 0 -6
BITMAP
0000
0000
0000
0000
0000
0000
0000
0000
07E0
07E0
01C0
01C0
01C0
01C0
01C0
01C0
01C0
01C0
71C0
71C0
71C0
7BC0
3F80
1F00
0000
0000
0000
0000
0000
0000
ENDCHAR

STARTCHAR K
ENCODING 75
SWIDTH 361 0
DWIDTH 12 0
BBX 12 30 0 -6
BITMAP
0000
0000
0000
0000
0000
0000
0000
0000
7070
70F0
71E0
73C0
7780
7F00
7E00
7C00
7C00
7E00
7F00
7780
73C0
71E0
70F0
7070
0000
0000
0000
0000
0000
0000
ENDCHAR

STARTCHAR L
ENCODING 76
SWIDTH 361 0
DWIDTH 12 0
BBX 12 30 0 -6
BITMAP
0000
0000
0000
0000
0000
0000
0000
0000
7000
7000
7000
7000
7000
7000
7000
7000
7000
7000
7000
7000
7000
7000
7FE0
7FE0
0000
0000
0000
0000
0000
0000
ENDCHAR

STARTCHAR M
ENCODING 77
SWIDTH 361 0
DWIDTH 12 0
BBX 12 30 0 -6
BITMAP
0000
0000
0000
0000
0000
0000
0000
0000
70E0
70E0
70E0
79E0
79E0
7FE0
7FE0
76E0
76E0
70E0
70E0
70E0
70E0
70E0
70E0
70E0
0000
0000
0000
0000
0000
0000
ENDCHAR

STARTCHAR N
ENCODING 78
SWIDTH 361 0
DWIDTH 12 0
BBX 12 30 0 -6
BITMAP
0000
0000
0000
0000
0000
0000
0000
0000
70E0
70E0
78E0
78E0
7CE0
7CE0
7CE0
76E0
76E0
73E0
73E0
73E0
71E0
71E0
70E0
70E0
0000
0000
0000
0000
0000
0000
ENDCHAR

STARTCHAR O
ENCODING 79
SWIDTH 361 0
DWIDTH 12 0
BBX 12 30 0 -6
BITMAP
0000
0000
0000
0000
0000
0000
0000
0000
1F80
3FC0
79E0
70E0
70E0
70E0
70E0
70E0
70E0
70E0
70E0
70E0
70E0
79E0
3FC0
1F80
0000
0000
0000
0000
0000
0000
ENDCHAR

STARTCHAR P
ENCODING 80
SWIDTH 361 0
DWIDTH 12 0
BBX 12 30 0 -6
BITMAP
0000
0000
0000
0000
0000
0000
0000
0000
7F80
7FC0
71E0
70E0
70E0
70E0
70E0
71E0
7FC0
7F80
7000
7000
7000
7000
7000
7000
0000
0000
0000
0000
0000
0000
ENDCHAR

STARTCHAR Q
ENCODING 81
SWIDTH 361 0
DWIDTH 12 0
BBX 12 30 0 -6
BITMAP
0000
0000
0000
0000
0000
0000
0000
0000
1F80
3FC0
79E0
70E0
70E0
70E0
70E0
70E0
70E0
70E0
70E0
70E0
76E0
7FE0
3FC0
1F80
01C0
00E0
0000
0000
0000
0000
ENDCHAR

STARTCHAR R
ENCODING 82
SWIDTH 361 0
DWIDTH 12 0
BBX 12 30 0 -6
BITMAP
0000
0000
0000
0000
0000
0000
0000
0000
7F80
7FC0
71E0
70E0
70E0
70E0
70E0
71E0
7FC0
7F80
7700
7380
73C0
71C0
71E0
70F0
0000
0000
0000
0000
0000
0000
ENDCHAR

STARTCHAR S
ENCODING 83
SWIDTH 361 0
DWIDTH 12 0
BBX 12 30 0 -6
BITMAP
0000
0000
0000
0000
0000
0000
0000
0000
1F80
3FC0
79E0
70E0
7000
7800
7F80
3FC0
1FE0
00E0
00E0
00E0
70E0
79E0
3FC0
1F80
0000
0000
0000
0000
0000
0000
ENDCHAR

STARTCHAR T
ENCODING 84
SWIDTH 361 0
DWIDTH 12 0
BBX 12 30 0 -6
BITMAP
0000
0000
0000
0000
0000
0000
0000
0000
3FE0
3FE0
0700
0700
0700
0700
0700
0700
0700
0700
0700
0700
0700
0700
0700
0700
0000
0000
0000
0000
0000
0000
ENDCHAR

STARTCHAR U
ENCODING 85
SWIDTH 361 0
DWIDTH 12 0
BBX 12 30 0 -6
BITMAP
0000
0000
0000
0000
0000
0000
0000
0000
70E0
70E0
70E0
70E0
70E0
70E0
70E0
70E0
70E0
70E0
70E0
70E0
70E0
79E0
3FC0
1F80
0000
0000
0000
0000
0000
0000
ENDCHAR

STARTCHAR V
ENCODING 86
SWIDTH 361 0
DWIDTH 12 0
BBX 12 30 0 -6
BITMAP
0000
0000
0000
0000
0000
0000
0000
0000
70E0
70E0
70E0
70E0
70E0
70E0
70E0
70E0
70E0
70E0
39C0
3FC0
1F80
0F00
0600
0600
0000
0000
0000
0000
0000
0000
ENDCHAR

STARTCHAR W
ENCODING 87
SWIDTH 361 0
DWIDTH 12 0
BBX 12 30 0 -6
BITMAP
0000
0000
0000
0000
0000
0000
0000
0000
70E0
70E0
70E0
70E0
70E0
70E0
76E0
76E0
76E0
76E0
76E0
76E0
76E0
7FE0
7FE0
39C0
0000
0000
0000
0000
0000
0000
ENDCHAR

STARTCHAR X
ENCODING 88
SWIDTH 361 0
DWIDTH 12 0
BBX 12 30 0 -6
BITMAP
0000
0000
0000
0000
0000
0000
0000
0000
70E0
70E0
70E0
39C0
39C0
1F80
1F80
0F00
0F00
1F80
1F80
39C0
39C0
70E0
70E0
70E0
0000
0000
0000
0000
0000
0000
ENDCHAR

STARTCHAR Y
ENCODING 89
SWIDTH 355 0
DWIDTH 12 0
BBX 12 30 0 -6
BITMAP
0000
0000
0000
0000
0000
0000
0000
0000
70E0
70E0
70E0
70E0
70E0
79E0
39C0
3FC0
1F80
0F00
0F00
0F00
0F00
0F00
0F00
0F00
0000
0000
0000
0000
0000
0000
ENDCHAR

STARTCHAR Z
ENCODING 90
SWIDTH 361 0
DWIDTH 12 0
BBX 12 30 0 -6
BITMAP
0000
0000
0000
0000
0000
0000
0000
0000
7FE0
7FE0
00E0
00E0
00E0
01E0
03C0
0780
0F00
1E00
3C00
7800
7000
7000
7FE0
7FE0
0000
0000
0000
0000
0000
0000
ENDCHAR

STARTCHAR bracketleft
ENCODING 91
SWIDTH 361 0
DWIDTH 12 0
BBX 12 30 0 -6
BITMAP
0000
0000
0000
0000
0000
0000
1FC0
1FC0
1C00
1C00
1C00
1C00
1C00
1C00
1C00
1C00
1C00
1C00
1C00
1C00
1C00
1C00
1C00
1C00
1FC0
1FC0
0000
0000
0000
0000
ENDCHAR

STARTCHAR backslash
ENCODING 92
SWIDTH 361 0
DWIDTH 12 0
BBX 12 30 0 -6
BITMAP
0000
0000
0000
0000
0000
0000
0000
0000
7000
7000
3800
3800
1C00
1C00
0E00
0E00
0700
0700
0380
0380
01C0
01C0
00E0
00E0
0000
0000
0000
0000
0000
0000
ENDCHAR

STARTCHAR bracketright
ENCODING 93
SWIDTH 361 0
DWIDTH 12 0
BBX 12 30 0 -6
BITMAP
0000
0000
0000
0000
0000
0000
3F80
3F80
0380
0380
0380
0380
0380
0380
0380
0380
0380
0380
0380
0380
0380
0380
0380
0380
3F80
3F80
0000
0000
0000
0000
ENDCHAR

STARTCHAR asciicircum
ENCODING 94
SWIDTH 361 0
DWIDTH 12 0
BBX 12 30 0 -6
BITMAP
0000
0000
0000
0000
0000
0000
0600
0F00
1F80
3FC0
79E0
70E0
0000
0000
0000
0000
0000
0000
0000
0000
0000
0000
0000
0000
0000
0000
0000
0000
0000
0000
ENDCHAR

STARTCHAR underscore
ENCODING 95
SWIDTH 361 0
DWIDTH 12 0
BBX 12 30 0 -6
BITMAP
0000
0000
0000
0000
0000
0000
0000
0000
0000
0000
0000
0000
0000
0000
0000
0000
0000
0000
0000
0000
0000
0000
0000
0000
7FE0
7FE0
7FE0
0000
0000
0000
ENDCHAR

STARTCHAR quoteleft
ENCODING 96
SWIDTH 361 0
DWIDTH 12 0
BBX 12 30 0 -6
BITMAP
0000
0000
0000
0000
0000
0000
0E00
0E00
0E00
0700
0300
0000
0000
0000
0000
0000
0000
0000
0000
0000
0000
0000
0000
0000
0000
0000
0000
0000
0000
0000
ENDCHAR

STARTCHAR a
ENCODING 97
SWIDTH 361 0
DWIDTH 12 0
BBX 12 30 0 -6
BITMAP
0000
0000
0000
0000
0000
0000
0000
0000
0000
0000
0000
0000
3F80
3FC0
01E0
00E0
1EE0
3FE0
71E0
70E0
70E0
79E0
3FE0
1EE0
0000
0000
0000
0000
0000
0000
ENDCHAR

STARTCHAR b
ENCODING 98
SWIDTH 361 0
DWIDTH 12 0
BBX 12 30 0 -6
BITMAP
0000
0000
0000
0000
0000
0000
0000
0000
7000
7000
7000
7000
7780
7FC0
79E0
70E0
70E0
70E0
70E0
70E0
70E0
79E0
7FC0
7780
0000
0000
0000
0000
0000
0000
ENDCHAR

STARTCHAR c
ENCODING 99
SWIDTH 361 0
DWIDTH 12 0
BBX 12 30 0 -6
BITMAP
0000
0000
0000
0000
0000
0000
0000
0000
0000
0000
0000
0000
1F80
3FC0
79E0
70E0
7000
7000
7000
7000
70E0
79E0
3FC0
1F80
0000
0000
0000
0000
0000
0000
ENDCHAR

STARTCHAR d
ENCODING 100
SWIDTH 361 0
DWIDTH 12 0
BBX 12 30 0 -6
BITMAP
0000
0000
0000
0000
0000
0000
0000
0000
00E0
00E0
00E0
00E0
1EE0
3FE0
79E0
70E0
70E0
70E0
70E0
70E0
70E0
79E0
3FE0
1EE0
0000
0000
0000
0000
0000
0000
ENDCHAR

STARTCHAR e
ENCODING 101
SWIDTH 361 0
DWIDTH 12 0
BBX 12 30 0 -6
BITMAP
0000
0000
0000
0000
0000
0000
0000
0000
0000
0000
0000
0000
1F80
3FC0
79E0
70E0
7FE0
7FE0
7000
7000
70E0
79E0
3FC0
1F80
0000
0000
0000
0000
0000
0000
ENDCHAR

STARTCHAR f
ENCODING 102
SWIDTH 361 0
DWIDTH 12 0
BBX 12 30 0 -6
BITMAP
0000
0000
0000
0000
0000
0000
0000
0000
03C0
07E0
0FF0
0E70
0E00
0E00
3FC0
3FC0
0E00
0E00
0E00
0E00
0E00
0E00
0E00
0E00
0000
0000
0000
0000
0000
0000
ENDCHAR

STARTCHAR g
ENCODING 103
SWIDTH 361 0
DWIDTH 12 0
BBX 12 30 0 -6
BITMAP
0000
0000
0000
0000
0000
0000
0000
0000
0000
0000
0000
0000
1FE0
3FE0
79E0
70E0
70E0
70E0
70E0
70E0
79E0
3FE0
1EE0
00E0
01C0
03C0
3F80
3F00
0000
0000
ENDCHAR

STARTCHAR h
ENCODING 104
SWIDTH 361 0
DWIDTH 12 0
BBX 12 30 0 -6
BITMAP
0000
0000
0000
0000
0000
0000
0000
0000
7000
7000
7000
7000
7780
7FC0
79E0
70E0
70E0
70E0
70E0
70E0
70E0
70E0
70E0
70E0
0000
0000
0000
0000
0000
0000
ENDCHAR

STARTCHAR i
ENCODING 105
SWIDTH 350 0
DWIDTH 12 0
BBX 12 30 0 -6
BITMAP
0000
0000
0000
0000
0000
0000
0000
0700
0700
0700
0000
0000
3F00
3F00
0700
0700
0700
0700
0700
0700
0700
0700
3FE0
3FE0
0000
0000
0000
0000
0000
0000
ENDCHAR

STARTCHAR j
ENCODING 106
SWIDTH 361 0
DWIDTH 12 0
BBX 12 30 0 -6
BITMAP
0000
0000
0000
0000
0000
0000
0000
01C0
01C0
01C0
0000
0000
1FC0
1FC0
01C0
01C0
01C0
01C0
01C0
01C0
01C0
01C0
01C0
01C0
03C0
3F80
3E00
0000
0000
0000
ENDCHAR

STARTCHAR k
ENCODING 107
SWIDTH 361 0
DWIDTH 12 0
BBX 12 30 0 -6
BITMAP
0000
0000
0000
0000
0000
0000
0000
0000
7000
7000
7000
7000
71E0
73C0
7780
7F00
7E00
7C00
7E00
7F00
7780
73C0
71E0
70F0
0000
0000
0000
0000
0000
0000
ENDCHAR

STARTCHAR l
ENCODING 108
SWIDTH 361 0
DWIDTH 12 0
BBX 12 30 0 -6
BITMAP
0000
0000
0000
0000
0000
0000
0000
0000
1F00
1F00
0700
0700
0700
0700
0700
0700
0700
0700
0700
0700
0700
0700
3FE0
3FE0
0000
0000
0000
0000
0000
0000
ENDCHAR

STARTCHAR m
ENCODING 109
SWIDTH 361 0
DWIDTH 12 0
BBX 12 30 0 -6
BITMAP
0000
0000
0000
0000
0000
0000
0000
0000
0000
0000
0000
0000
79C0
7FE0
76E0
76E0
76E0
76E0
76E0
76E0
70E0
70E0
70E0
70E0
0000
0000
0000
0000
0000
0000
ENDCHAR

STARTCHAR n
ENCODING 110
SWIDTH 361 0
DWIDTH 12 0
BBX 12 30 0 -6
BITMAP
0000
0000
0000
0000
0000
0000
0000
0000
0000
0000
0000
0000
7780
7FC0
79E0
70E0
70E0
70E0
70E0
70E0
70E0
70E0
70E0
70E0
0000
0000
0000
0000
0000
0000
ENDCHAR

STARTCHAR o
ENCODING 111
SWIDTH 361 0
DWIDTH 12 0
BBX 12 30 0 -6
BITMAP
0000
0000
0000
0000
0000
0000
0000
0000
0000
0000
0000
0000
1F80
3FC0
79E0
70E0
70E0
70E0
70E0
70E0
70E0
79E0
3FC0
1F80
0000
0000
0000
0000
0000
0000
ENDCHAR

STARTCHAR p
ENCODING 112
SWIDTH 362 0
DWIDTH 12 0
BBX 12 30 0 -6
BITMAP
0000
0000
0000
0000
0000
0000
0000
0000
0000
0000
0000
0000
7780
7FC0
79E0
70E0
70E0
70E0
70E0
70E0
70E0
79E0
7FC0
7780
7000
7000
7000
0000
0000
0000
ENDCHAR

STARTCHAR q
ENCODING 113
SWIDTH 362 0
DWIDTH 12 0
BBX 12 30 0 -6
BITMAP
0000
0000
0000
0000
0000
0000
0000
0000
0000
0000
0000
0000
1EE0
3FE0
79E0
70E0
70E0
70E0
70E0
70E0
70E0
79E0
3FE0
1EE0
00E0
00E0
00E0
0000
0000
0000
ENDCHAR

STARTCHAR r
ENCODING 114
SWIDTH 361 0
DWIDTH 12 0
BBX 12 30 0 -6
BITMAP
0000
0000
0000
0000
0000
0000
0000
0000
0000
0000
0000
0000
3B80
3FC0
3DC0
39C0
39C0
3800
3800
3800
3800
3800
3800
3800
0000
0000
0000
0000
0000
0000
ENDCHAR

STARTCHAR s
ENCODING 115
SWIDTH 361 0
DWIDTH 12 0
BBX 12 30 0 -6
BITMAP
0000
0000
0000
0000
0000
0000
0000
0000
0000
0000
0000
0000
1F80
3FC0
79E0
70E0
7C00
3F80
1FC0
03E0
70E0
79E0
3FC0
1F80
0000
0000
0000
0000
0000
0000
ENDCHAR

STARTCHAR t
ENCODING 116
SWIDTH 361 0
DWIDTH 12 0
BBX 12 30 0 -6
BITMAP
0000
0000
0000
0000
0000
0000
0000
0000
0E00
0E00
0E00
0E00
3FE0
3FE0
0E00
0E00
0E00
0E00
0E00
0E00
0E00
0F00
07E0
03E0
0000
0000
0000
0000
0000
0000
ENDCHAR

STARTCHAR u
ENCODING 117
SWIDTH 361 0
DWIDTH 12 0
BBX 12 30 0 -6
BITMAP
0000
0000
0000
0000
0000
0000
0000
0000
0000
0000
0000
0000
70E0
70E0
70E0
70E0
70E0
70E0
70E0
70E0
70E0
79E0
3FE0
1EE0
0000
0000
0000
0000
0000
0000
ENDCHAR

STARTCHAR v
ENCODING 118
SWIDTH 361 0
DWIDTH 12 0
BBX 12 30 0 -6
BITMAP
0000
0000
0000
0000
0000
0000
0000
0000
0000
0000
0000
0000
70E0
70E0
70E0
70E0
70E0
70E0
39C0
39C0
1F80
1F80
0F00
0600
0000
0000
0000
0000
0000
0000
ENDCHAR

STARTCHAR w
ENCODING 119
SWIDTH 361 0
DWIDTH 12 0
BBX 12 30 0 -6
BITMAP
0000
0000
0000
0000
0000
0000
0000
0000
0000
0000
0000
0000
70E0
70E0
70E0
70E0
76E0
76E0
76E0
76E0
76E0
7FE0
3FC0
1980
0000
0000
0000
0000
0000
0000
ENDCHAR

STARTCHAR x
ENCODING 120
SWIDTH 361 0
DWIDTH 12 0
BBX 12 30 0 -6
BITMAP
0000
0000
0000
0000
0000
0000
0000
0000
0000
0000
0000
0000
F0F0
79E0
39C0
1F80
0F00
0600
0600
0F00
1F80
39C0
79E0
F0F0
0000
0000
0000
0000
0000
0000
ENDCHAR

STARTCHAR y
ENCODING 121
SWIDTH 361 0
DWIDTH 12 0
BBX 12 30 0 -6
BITMAP
0000
0000
0000
0000
0000
0000
0000
0000
0000
0000
0000
0000
70E0
70E0
70E0
70E0
70E0
38E0
39C0
1DC0
1F80
0F80
0700
0700
0E00
3C00
3800
0000
0000
0000
ENDCHAR

STARTCHAR z
ENCODING 122
SWIDTH 361 0
DWIDTH 12 0
BBX 12 30 0 -6
BITMAP
0000
0000
0000
0000
0000
0000
0000
0000
0000
0000
0000
0000
7FE0
7FE0
00E0
01E0
03C0
0780
0F00
1E00
3C00
7800
7FE0
7FE0
0000
0000
0000
0000
0000
0000
ENDCHAR

STARTCHAR braceleft
ENCODING 123
SWIDTH 361 0
DWIDTH 12 0
BBX 12 30 0 -6
BITMAP
0000
0000
0000
0000
0000
0000
03C0
07C0
0F00
0E00
0E00
0E00
0700
0300
3E00
3E00
0300
0700
0E00
0E00
0E00
0E00
0E00
0F00
07C0
03C0
0000
0000
0000
0000
ENDCHAR

STARTCHAR bar
ENCODING 124
SWIDTH 361 0
DWIDTH 12 0
BBX 12 30 0 -6
BITMAP
0000
0000
0000
0000
0000
0000
0000
0000
0E00
0E00
0E00
0E00
0E00
0E00
0E00
0E00
0E00
0E00
0E00
0E00
0E00
0E00
0E00
0E00
0000
0000
0000
0000
0000
0000
ENDCHAR

STARTCHAR braceright
ENCODING 125
SWIDTH 361 0
DWIDTH 12 0
BBX 12 30 0 -6
BITMAP
0000
0000
0000
0000
0000
0000
3C00
3E00
0F00
0700
0700
0700
0E00
0C00
07C0
07C0
0C00
0E00
0700
0700
0700
0700
0700
0F00
3E00
3C00
0000
0000
0000
0000
ENDCHAR

STARTCHAR asciitilde
ENCODING 126
SWIDTH 361 0
DWIDTH 12 0
BBX 12 30 0 -6
BITMAP
0000
0000
0000
0000
0000
0000
1C60
3E60
7FE0
7FE0
67C0
6380
0000
0000
0000
0000
0000
0000
0000
0000
0000
0000
0000
0000
0000
0000
0000
0000
0000
0000
ENDCHAR

STARTCHAR space
ENCODING 160
SWIDTH 361 0
DWIDTH 12 0
BBX 12 30 0 -6
BITMAP
0000
0000
0000
0000
0000
0000
0000
0000
0000
0000
0000
0000
0000
0000
0000
0000
0000
0000
0000
0000
0000
0000
0000
0000
0000
0000
0000
0000
0000
0000
ENDCHAR

STARTCHAR exclamdown
ENCODING 161
SWIDTH 361 0
DWIDTH 12 0
BBX 12 30 0 -6
BITMAP
0000
0000
0000
0000
0000
0000
0000
0000
0000
0000
0E00
0E00
0E00
0000
0000
0E00
0E00
0E00
0E00
0E00
0E00
0E00
0E00
0E00
0E00
0E00
0E00
0000
0000
0000
ENDCHAR

STARTCHAR cent
ENCODING 162
SWIDTH 361 0
DWIDTH 12 0
BBX 12 30 0 -6
BITMAP
0000
0000
0000
0000
0000
0000
0000
0000
0000
0000
0300
0300
1FC0
3FE0
7B70
7370
7300
7300
7370
7B70
3FE0
1FC0
0300
0300
0000
0000
0000
0000
0000
0000
ENDCHAR

STARTCHAR sterling
ENCODING 163
SWIDTH 361 0
DWIDTH 12 0
BBX 12 30 0 -6
BITMAP
0000
0000
0000
0000
0000
0000
0000
0000
0780
0FC0
1EE0
1CE0
1C00
1C00
7F80
7F80
1C00
1C00
1C00
1C00
1C00
1E60
3FE0
77C0
0000
0000
0000
0000
0000
0000
ENDCHAR

STARTCHAR currency
ENCODING 164
SWIDTH 361 0
DWIDTH 12 0
BBX 12 30 0 -6
BITMAP
0000
0000
0000
0000
0000
0000
0000
0000
0000
0000
70E0
79E0
7FE0
3FC0
1980
1980
1980
3FC0
7FE0
79E0
70E0
0000
0000
0000
0000
0000
0000
0000
0000
0000
ENDCHAR

STARTCHAR yen
ENCODING 165
SWIDTH 361 0
DWIDTH 12 0
BBX 12 30 0 -6
BITMAP
0000
0000
0000
0000
0000
0000
0000
0000
70E0
70E0
70E0
70E0
79E0
3FC0
1F80
3FC0
3FC0
0F00
3FC0
3FC0
0F00
0F00
0F00
0F00
0000
0000
0000
0000
0000
0000
ENDCHAR

STARTCHAR brokenbar
ENCODING 166
SWIDTH 361 0
DWIDTH 12 0
BBX 12 30 0 -6
BITMAP
0000
0000
0000
0000
0000
0000
0000
0000
0E00
0E00
0E00
0E00
0E00
0E00
0000
0000
0000
0000
0E00
0E00
0E00
0E00
0E00
0E00
0000
0000
0000
0000
0000
0000
ENDCHAR

STARTCHAR section
ENCODING 167
SWIDTH 361 0
DWIDTH 12 0
BBX 12 30 0 -6
BITMAP
0000
0000
0000
0000
0000
0000
0F00
1F80
3DC0
3DC0
1C00
0E00
1F00
3B80
39C0
39C0
1DC0
0F80
0700
0380
3BC0
3BC0
1F80
0F00
0000
0000
0000
0000
0000
0000
ENDCHAR

STARTCHAR dieresis
ENCODING 168
SWIDTH 361 0
DWIDTH 12 0
BBX 12 30 0 -6
BITMAP
0000
0000
0000
0000
0000
0000
0000
39C0
39C0
39C0
0000
0000
0000
0000
0000
0000
0000
0000
0000
0000
0000
0000
0000
0000
0000
0000
0000
0000
0000
0000
ENDCHAR

STARTCHAR copyright
ENCODING 169
SWIDTH 361 0
DWIDTH 12 0
BBX 12 30 0 -6
BITMAP
0000
0000
0000
0000
0000
0000
0000
0000
0000
1FC0
3FE0
6030
4F90
5FD0
5DD0
5C10
5C10
5DD0
5FD0
4F90
6030
3FE0
1FC0
0000
0000
0000
0000
0000
0000
0000
ENDCHAR

STARTCHAR ordfeminine
ENCODING 170
SWIDTH 361 0
DWIDTH 12 0
BBX 12 30 0 -6
BITMAP
0000
0000
0000
0000
0000
0000
3E00
3F00
0380
1F80
3F80
7380
7380
3FC0
1EC0
0000
7FC0
7FC0
7FC0
0000
0000
0000
0000
0000
0000
0000
0000
0000
0000
0000
ENDCHAR

STARTCHAR guillemotleft
ENCODING 171
SWIDTH 361 0
DWIDTH 12 0
BBX 12 30 0 -6
BITMAP
0000
0000
0000
0000
0000
0000
0000
0000
0000
0000
0000
0000
0770
0EE0
1DC0
3B80
7700
7700
3B80
1DC0
0EE0
0770
0000
0000
0000
0000
0000
0000
0000
0000
ENDCHAR

STARTCHAR logicalnot
ENCODING 172
SWIDTH 361 0
DWIDTH 12 0
BBX 12 30 0 -6
BITMAP
0000
0000
0000
0000
0000
0000
0000
0000
3FC0
3FC0
3FC0
01C0
0000
0000
0000
0000
0000
0000
0000
0000
0000
0000
0000
0000
0000
0000
0000
0000
0000
0000
ENDCHAR

STARTCHAR hyphen
ENCODING 173
SWIDTH 361 0
DWIDTH 12 0
BBX 12 30 0 -6
BITMAP
0000
0000
0000
0000
0000
0000
0000
0000
0000
0000
0000
0000
0000
0000
3FC0
3FC0
3FC0
0000
0000
0000
0000
0000
0000
0000
0000
0000
0000
0000
0000
0000
ENDCHAR

STARTCHAR registered
ENCODING 174
SWIDTH 361 0
DWIDTH 12 0
BBX 12 30 0 -6
BITMAP
0000
0000
0000
0000
0000
0000
0000
0000
0000
1FC0
3FE0
6030
4F90
5FD0
5DD0
5DD0
5F90
5F90
5DD0
5CF0
6030
3FE0
1FC0
0000
0000
0000
0000
0000
0000
0000
ENDCHAR

STARTCHAR macron
ENCODING 175
SWIDTH 361 0
DWIDTH 12 0
BBX 12 30 0 -6
BITMAP
0000
0000
0000
0000
0000
0000
0000
0000
0000
3FC0
3FC0
3FC0
0000
0000
0000
0000
0000
0000
0000
0000
0000
0000
0000
0000
0000
0000
0000
0000
0000
0000
ENDCHAR

STARTCHAR degree
ENCODING 176
SWIDTH 361 0
DWIDTH 12 0
BBX 12 30 0 -6
BITMAP
0000
0000
0000
0000
0000
0000
0600
0F00
1D80
1D80
0F00
0600
0000
0000
0000
0000
0000
0000
0000
0000
0000
0000
0000
0000
0000
0000
0000
0000
0000
0000
ENDCHAR

STARTCHAR plusminus
ENCODING 177
SWIDTH 361 0
DWIDTH 12 0
BBX 12 30 0 -6
BITMAP
0000
0000
0000
0000
0000
0000
0000
0000
0000
0700
0700
0700
0700
3FE0
3FE0
3FE0
0700
0700
0700
0700
0000
3FE0
3FE0
3FE0
0000
0000
0000
0000
0000
0000
ENDCHAR

STARTCHAR twosuperior
ENCODING 178
SWIDTH 361 0
DWIDTH 12 0
BBX 12 30 0 -6
BITMAP
0000
0000
0000
0000
0000
0000
0F00
1F80
1B80
0380
0380
0700
0E00
1C00
1F80
1F80
0000
0000
0000
0000
0000
0000
0000
0000
0000
0000
0000
0000
0000
0000
ENDCHAR

STARTCHAR threesuperior
ENCODING 179
SWIDTH 361 0
DWIDTH 12 0
BBX 12 30 0 -6
BITMAP
0000
0000
0000
0000
0000
0000
0F00
1F80
1B80
0380
0700
0700
0380
1B80
1F80
0F00
0000
0000
0000
0000
0000
0000
0000
0000
0000
0000
0000
0000
0000
0000
ENDCHAR

STARTCHAR acute
ENCODING 180
SWIDTH 361 0
DWIDTH 12 0
BBX 12 30 0 -6
BITMAP
0000
0000
0000
0000
0000
0000
0000
0380
0700
0E00
0000
0000
0000
0000
0000
0000
0000
0000
0000
0000
0000
0000
0000
0000
0000
0000
0000
0000
0000
0000
ENDCHAR

STARTCHAR mu
ENCODING 181
SWIDTH 361 0
DWIDTH 12 0
BBX 12 30 0 -6
BITMAP
0000
0000
0000
0000
0000
0000
0000
0000
0000
0000
0000
0000
39C0
39C0
39C0
39C0
39C0
39C0
39C0
39C0
39C0
39C0
3FE0
3F60
6000
6000
6000
0000
0000
0000
ENDCHAR

STARTCHAR paragraph
ENCODING 182
SWIDTH 361 0
DWIDTH 12 0
BBX 12 30 0 -6
BITMAP
0000
0000
0000
0000
0000
0000
0FE0
1FE0
3E60
3E60
7E60
7E60
7E60
7E60
7E60
7E60
3E60
3E60
0E60
0660
0660
0660
0660
0660
0660
0000
0000
0000
0000
0000
ENDCHAR

STARTCHAR periodcentered
ENCODING 183
SWIDTH 361 0
DWIDTH 12 0
BBX 12 30 0 -6
BITMAP
0000
0000
0000
0000
0000
0000
0000
0000
0000
0000
0000
0000
0000
0000
0E00
0E00
0E00
0000
0000
0000
0000
0000
0000
0000
0000
0000
0000
0000
0000
0000
ENDCHAR

STARTCHAR cedilla
ENCODING 184
SWIDTH 361 0
DWIDTH 12 0
BBX 12 30 0 -6
BITMAP
0000
0000
0000
0000
0000
0000
0000
0000
0000
0000
0000
0000
0000
0000
0000
0000
0000
0000
0000
0000
0000
0000
0000
0000
0700
0E00
1C00
0000
0000
0000
ENDCHAR

STARTCHAR onesuperior
ENCODING 185
SWIDTH 361 0
DWIDTH 12 0
BBX 12 30 0 -6
BITMAP
0000
0000
0000
0000
0000
0000
0300
0700
0F00
0F00
0700
0700
0700
0700
0F80
0F80
0000
0000
0000
0000
0000
0000
0000
0000
0000
0000
0000
0000
0000
0000
ENDCHAR

STARTCHAR ordmasculine
ENCODING 186
SWIDTH 361 0
DWIDTH 12 0
BBX 12 30 0 -6
BITMAP
0000
0000
0000
0000
0000
0000
0F00
1F80
3FC0
39C0
39C0
39C0
3FC0
1F80
0F00
0000
3FC0
3FC0
3FC0
0000
0000
0000
0000
0000
0000
0000
0000
0000
0000
0000
ENDCHAR

STARTCHAR guillemotright
ENCODING 187
SWIDTH 361 0
DWIDTH 12 0
BBX 12 30 0 -6
BITMAP
0000
0000
0000
0000
0000
0000
0000
0000
0000
0000
0000
0000
7700
3B80
1DC0
0EE0
0770
0770
0EE0
1DC0
3B80
7700
0000
0000
0000
0000
0000
0000
0000
0000
ENDCHAR

STARTCHAR onequarter
ENCODING 188
SWIDTH 361 0
DWIDTH 12 0
BBX 12 30 0 -6
BITMAP
0000
0000
0000
0000
0000
0000
0C00
1C00
3C00
3C00
1C30
1C70
3EE0
3FC0
0380
0700
0EC0
1DC0
3BC0
76C0
6CC0
0FE0
0FE0
00C0
0000
0000
0000
0000
0000
0000
ENDCHAR

STARTCHAR onehalf
ENCODING 189
SWIDTH 361 0
DWIDTH 12 0
BBX 12 30 0 -6
BITMAP
0000
0000
0000
0000
0000
0000
1800
3800
7800
7800
3860
38E0
7DC0
7F80
0700
0E00
1FC0
3FE0
76E0
E1E0
C3C0
0380
07E0
07E0
0000
0000
0000
0000
0000
0000
ENDCHAR

STARTCHAR threequarters
ENCODING 190
SWIDTH 361 0
DWIDTH 12 0
BBX 12 30 0 -6
BITMAP
0000
0000
0000
0000
0000
0000
F800
FC00
1C00
1C00
F830
1C70
1CE0
FDC0
FB80
0700
0EC0
1DC0
3BC0
76C0
ECC0
CFE0
0FE0
00C0
0000
0000
0000
0000
0000
0000
ENDCHAR

STARTCHAR questiondown
ENCODING 191
SWIDTH 361 0
DWIDTH 12 0
BBX 12 30 0 -6
BITMAP
0000
0000
0000
0000
0000
0000
0000
0000
0000
0700
0700
0700
0000
0000
0700
0700
0700
0F00
1E00
3C00
7800
70E0
70E0
79E0
3FC0
1F80
0000
0000
0000
0000
ENDCHAR

STARTCHAR Agrave
ENCODING 192
SWIDTH 361 0
DWIDTH 12 0
BBX 12 30 0 -6
BITMAP
0000
0000
0000
3800
1C00
0E00
0000
0000
0600
0600
0F00
1F80
1F80
39C0
39C0
30C0
70E0
7FE0
7FE0
70E0
70E0
70E0
70E0
70E0
0000
0000
0000
0000
0000
0000
ENDCHAR

STARTCHAR Aacute
ENCODING 193
SWIDTH 361 0
DWIDTH 12 0
BBX 12 30 0 -6
BITMAP
0000
0000
0000
0380
0700
0E00
0000
0000
0600
0600
0F00
1F80
1F80
39C0
39C0
30C0
70E0
7FE0
7FE0
70E0
70E0
70E0
70E0
70E0
0000
0000
0000
0000
0000
0000
ENDCHAR

STARTCHAR Acircumflex
ENCODING 194
SWIDTH 361 0
DWIDTH 12 0
BBX 12 30 0 -6
BITMAP
0000
0000
0000
0700
0F80
1DC0
0000
0000
0600
0600
0F00
1F80
1F80
39C0
39C0
30C0
70E0
7FE0
7FE0
70E0
70E0
70E0
70E0
70E0
0000
0000
0000
0000
0000
0000
ENDCHAR

STARTCHAR Atilde
ENCODING 195
SWIDTH 361 0
DWIDTH 12 0
BBX 12 30 0 -6
BITMAP
0000
0000
0000
0EC0
1F80
3700
0000
0000
0600
0600
0F00
1F80
1F80
39C0
39C0
30C0
70E0
7FE0
7FE0
70E0
70E0
70E0
70E0
70E0
0000
0000
0000
0000
0000
0000
ENDCHAR

STARTCHAR Adieresis
ENCODING 196
SWIDTH 361 0
DWIDTH 12 0
BBX 12 30 0 -6
BITMAP
0000
0000
0000
39C0
39C0
39C0
0000
0000
0600
0600
0F00
1F80
1F80
39C0
39C0
30C0
70E0
7FE0
7FE0
70E0
70E0
70E0
70E0
70E0
0000
0000
0000
0000
0000
0000
ENDCHAR

STARTCHAR Aring
ENCODING 197
SWIDTH 361 0
DWIDTH 12 0
BBX 12 30 0 -6
BITMAP
0000
0000
0000
1F80
39C0
1F80
0000
0000
0600
0600
0F00
1F80
1F80
39C0
39C0
30C0
70E0
7FE0
7FE0
70E0
70E0
70E0
70E0
70E0
0000
0000
0000
0000
0000
0000
ENDCHAR

STARTCHAR AE
ENCODING 198
SWIDTH 361 0
DWIDTH 12 0
BBX 12 30 0 -6
BITMAP
0000
0000
0000
0000
0000
0000
0000
0FF0
1FF0
3F80
7B80
7380
7380
7380
7FE0
7FE0
7380
7380
7380
7380
7380
7380
73F0
73F0
0000
0000
0000
0000
0000
0000
ENDCHAR

STARTCHAR Ccedilla
ENCODING 199
SWIDTH 361 0
DWIDTH 12 0
BBX 12 30 0 -6
BITMAP
0000
0000
0000
0000
0000
0000
0000
0000
1F80
3FC0
79E0
70E0
7000
7000
7000
7000
7000
7000
7000
7000
70E0
79E0
3FC0
1F80
0E00
1C00
3800
0000
0000
0000
ENDCHAR

STARTCHAR Egrave
ENCODING 200
SWIDTH 361 0
DWIDTH 12 0
BBX 12 30 0 -6
BITMAP
0000
0000
0000
1C00
0E00
0700
0000
0000
7FE0
7FE0
7000
7000
7000
7000
7000
7F80
7F80
7000
7000
7000
7000
7000
7FE0
7FE0
0000
0000
0000
0000
0000
0000
ENDCHAR

STARTCHAR Eacute
ENCODING 201
SWIDTH 361 0
DWIDTH 12 0
BBX 12 30 0 -6
BITMAP
0000
0000
0000
0380
0700
0E00
0000
0000
7FE0
7FE0
7000
7000
7000
7000
7000
7F80
7F80
7000
7000
7000
7000
7000
7FE0
7FE0
0000
0000
0000
0000
0000
0000
ENDCHAR

STARTCHAR Ecircumflex
ENCODING 202
SWIDTH 361 0
DWIDTH 12 0
BBX 12 30 0 -6
BITMAP
0000
0000
0000
0600
0F00
1D80
0000
0000
7FE0
7FE0
7000
7000
7000
7000
7000
7F80
7F80
7000
7000
7000
7000
7000
7FE0
7FE0
0000
0000
0000
0000
0000
0000
ENDCHAR

STARTCHAR Edieresis
ENCODING 203
SWIDTH 361 0
DWIDTH 12 0
BBX 12 30 0 -6
BITMAP
0000
0000
0000
39C0
39C0
39C0
0000
0000
7FE0
7FE0
7000
7000
7000
7000
7000
7F80
7F80
7000
7000
7000
7000
7000
7FE0
7FE0
0000
0000
0000
0000
0000
0000
ENDCHAR

STARTCHAR Igrave
ENCODING 204
SWIDTH 361 0
DWIDTH 12 0
BBX 12 30 0 -6
BITMAP
0000
0000
0000
0E00
0700
0380
0000
0000
3FE0
3FE0
0700
0700
0700
0700
0700
0700
0700
0700
0700
0700
0700
0700
3FE0
3FE0
0000
0000
0000
0000
0000
0000
ENDCHAR

STARTCHAR Iacute
ENCODING 205
SWIDTH 361 0
DWIDTH 12 0
BBX 12 30 0 -6
BITMAP
0000
0000
0000
01C0
0380
0700
0000
0000
3FE0
3FE0
0700
0700
0700
0700
0700
0700
0700
0700
0700
0700
0700
0700
3FE0
3FE0
0000
0000
0000
0000
0000
0000
ENDCHAR

STARTCHAR Icircumflex
ENCODING 206
SWIDTH 361 0
DWIDTH 12 0
BBX 12 30 0 -6
BITMAP
0000
0000
0000
0300
0780
0EC0
0000
0000
3FE0
3FE0
0700
0700
0700
0700
0700
0700
0700
0700
0700
0700
0700
0700
3FE0
3FE0
0000
0000
0000
0000
0000
0000
ENDCHAR

STARTCHAR Idieresis
ENCODING 207
SWIDTH 361 0
DWIDTH 12 0
BBX 12 30 0 -6
BITMAP
0000
0000
0000
1DC0
1DC0
1DC0
0000
0000
3FE0
3FE0
0700
0700
0700
0700
0700
0700
0700
0700
0700
0700
0700
0700
3FE0
3FE0
0000
0000
0000
0000
0000
0000
ENDCHAR

STARTCHAR Gbreve
ENCODING 208
SWIDTH 361 0
DWIDTH 12 0
BBX 12 30 0 -6
BITMAP
0000
0000
1DC0
1DC0
1FC0
0F80
0000
0000
1F80
3FC0
79E0
70E0
7000
7000
7000
71E0
71E0
70E0
70E0
70E0
70E0
78E0
3FE0
1FE0
0000
0000
0000
0000
0000
0000
ENDCHAR

STARTCHAR Ntilde
ENCODING 209
SWIDTH 361 0
DWIDTH 12 0
BBX 12 30 0 -6
BITMAP
0000
0000
0000
0EC0
1F80
3700
0000
0000
70E0
70E0
78E0
78E0
7CE0
7CE0
7EE0
7EE0
77E0
77E0
73E0
73E0
71E0
71E0
70E0
70E0
0000
0000
0000
0000
0000
0000
ENDCHAR

STARTCHAR Ograve
ENCODING 210
SWIDTH 361 0
DWIDTH 12 0
BBX 12 30 0 -6
BITMAP
0000
0000
0000
1C00
0E00
0700
0000
0000
1F80
3FC0
79E0
70E0
70E0
70E0
70E0
70E0
70E0
70E0
70E0
70E0
70E0
79E0
3FC0
1F80
0000
0000
0000
0000
0000
0000
ENDCHAR

STARTCHAR Oacute
ENCODING 211
SWIDTH 361 0
DWIDTH 12 0
BBX 12 30 0 -6
BITMAP
0000
0000
0000
0380
0700
0E00
0000
0000
1F80
3FC0
79E0
70E0
70E0
70E0
70E0
70E0
70E0
70E0
70E0
70E0
70E0
79E0
3FC0
1F80
0000
0000
0000
0000
0000
0000
ENDCHAR

STARTCHAR Ocircumflex
ENCODING 212
SWIDTH 361 0
DWIDTH 12 0
BBX 12 30 0 -6
BITMAP
0000
0000
0000
0E00
1F00
3B80
0000
0000
1F80
3FC0
79E0
70E0
70E0
70E0
70E0
70E0
70E0
70E0
70E0
70E0
70E0
79E0
3FC0
1F80
0000
0000
0000
0000
0000
0000
ENDCHAR

STARTCHAR Otilde
ENCODING 213
SWIDTH 361 0
DWIDTH 12 0
BBX 12 30 0 -6
BITMAP
0000
0000
0000
0EC0
1F80
3700
0000
0000
1F80
3FC0
79E0
70E0
70E0
70E0
70E0
70E0
70E0
70E0
70E0
70E0
70E0
79E0
3FC0
1F80
0000
0000
0000
0000
0000
0000
ENDCHAR

STARTCHAR Odieresis
ENCODING 214
SWIDTH 361 0
DWIDTH 12 0
BBX 12 30 0 -6
BITMAP
0000
0000
0000
39C0
39C0
39C0
0000
0000
1F80
3FC0
79E0
70E0
70E0
70E0
70E0
70E0
70E0
70E0
70E0
70E0
70E0
79E0
3FC0
1F80
0000
0000
0000
0000
0000
0000
ENDCHAR

STARTCHAR multiply
ENCODING 215
SWIDTH 361 0
DWIDTH 12 0
BBX 12 30 0 -6
BITMAP
0000
0000
0000
0000
0000
0000
0000
0000
0000
0000
0000
7070
38E0
1DC0
0F80
0700
0F80
1DC0
38E0
7070
0000
0000
0000
0000
0000
0000
0000
0000
0000
0000
ENDCHAR

STARTCHAR Oslash
ENCODING 216
SWIDTH 361 0
DWIDTH 12 0
BBX 12 30 0 -6
BITMAP
0000
0000
0000
0000
0000
0000
0060
0060
1FE0
3FC0
78E0
71E0
71E0
73E0
72E0
76E0
76E0
74E0
7CE0
78E0
78E0
71E0
3FC0
7F80
6000
6000
0000
0000
0000
0000
ENDCHAR

STARTCHAR Ugrave
ENCODING 217
SWIDTH 361 0
DWIDTH 12 0
BBX 12 30 0 -6
BITMAP
0000
0000
0000
1C00
0E00
0700
0000
0000
70E0
70E0
70E0
70E0
70E0
70E0
70E0
70E0
70E0
70E0
70E0
70E0
70E0
79E0
3FC0
1F80
0000
0000
0000
0000
0000
0000
ENDCHAR

STARTCHAR Uacute
ENCODING 218
SWIDTH 361 0
DWIDTH 12 0
BBX 12 30 0 -6
BITMAP
0000
0000
0000
0380
0700
0E00
0000
0000
70E0
70E0
70E0
70E0
70E0
70E0
70E0
70E0
70E0
70E0
70E0
70E0
70E0
79E0
3FC0
1F80
0000
0000
0000
0000
0000
0000
ENDCHAR

STARTCHAR Ucircumflex
ENCODING 219
SWIDTH 361 0
DWIDTH 12 0
BBX 12 30 0 -6
BITMAP
0000
0000
0000
0600
0F00
1D80
0000
0000
70E0
70E0
70E0
70E0
70E0
70E0
70E0
70E0
70E0
70E0
70E0
70E0
70E0
79E0
3FC0
1F80
0000
0000
0000
0000
0000
0000
ENDCHAR

STARTCHAR Udieresis
ENCODING 220
SWIDTH 361 0
DWIDTH 12 0
BBX 12 30 0 -6
BITMAP
0000
0000
0000
39C0
39C0
39C0
0000
0000
70E0
70E0
70E0
70E0
70E0
70E0
70E0
70E0
70E0
70E0
70E0
70E0
70E0
79E0
3FC0
1F80
0000
0000
0000
0000
0000
0000
ENDCHAR

STARTCHAR Idotaccent
ENCODING 221
SWIDTH 361 0
DWIDTH 12 0
BBX 12 30 0 -6
BITMAP
0000
0000
0000
0700
0700
0700
0000
0000
3FE0
3FE0
0700
0700
0700
0700
0700
0700
0700
0700
0700
0700
0700
0700
3FE0
3FE0
0000
0000
0000
0000
0000
0000
ENDCHAR

STARTCHAR Scedilla
ENCODING 222
SWIDTH 361 0
DWIDTH 12 0
BBX 12 30 0 -6
BITMAP
0000
0000
0000
0000
0000
0000
0000
0000
1F80
3FC0
79E0
70E0
7000
7800
7F80
3FC0
1FE0
00E0
00E0
00E0
70E0
79E0
3FC0
1F80
0700
0E00
0000
0000
0000
0000
ENDCHAR

STARTCHAR germandbls
ENCODING 223
SWIDTH 361 0
DWIDTH 12 0
BBX 12 30 0 -6
BITMAP
0000
0000
0000
0000
0000
0000
0000
0000
0780
0FC0
1CE0
1CE0
1CE0
1CC0
7D80
7DC0
1CE0
1CE0
1CE0
1CE0
1CE0
1CE0
1DC0
3B80
7000
0000
0000
0000
0000
0000
ENDCHAR

STARTCHAR agrave
ENCODING 224
SWIDTH 361 0
DWIDTH 12 0
BBX 12 30 0 -6
BITMAP
0000
0000
0000
0000
0000
0000
0000
0E00
0700
0380
0000
0000
3F80
3FC0
01E0
00E0
1EE0
3FE0
71E0
70E0
70E0
79E0
3FE0
1EE0
0000
0000
0000
0000
0000
0000
ENDCHAR

STARTCHAR aacute
ENCODING 225
SWIDTH 361 0
DWIDTH 12 0
BBX 12 30 0 -6
BITMAP
0000
0000
0000
0000
0000
0000
0000
01C0
0380
0700
0000
0000
3F80
3FC0
01E0
00E0
1EE0
3FE0
71E0
70E0
70E0
79E0
3FE0
1EE0
0000
0000
0000
0000
0000
0000
ENDCHAR

STARTCHAR acircumflex
ENCODING 226
SWIDTH 361 0
DWIDTH 12 0
BBX 12 30 0 -6
BITMAP
0000
0000
0000
0000
0000
0000
0000
0600
0F00
1D80
0000
0000
3F80
3FC0
01E0
00E0
1EE0
3FE0
71E0
70E0
70E0
79E0
3FE0
1EE0
0000
0000
0000
0000
0000
0000
ENDCHAR

STARTCHAR atilde
ENCODING 227
SWIDTH 361 0
DWIDTH 12 0
BBX 12 30 0 -6
BITMAP
0000
0000
0000
0000
0000
0000
0000
0EC0
1F80
3700
0000
0000
3F80
3FC0
01E0
00E0
1EE0
3FE0
71E0
70E0
70E0
79E0
3FE0
1EE0
0000
0000
0000
0000
0000
0000
ENDCHAR

STARTCHAR adieresis
ENCODING 228
SWIDTH 361 0
DWIDTH 12 0
BBX 12 30 0 -6
BITMAP
0000
0000
0000
0000
0000
0000
0000
1CE0
1CE0
1CE0
0000
0000
3F80
3FC0
01E0
00E0
1EE0
3FE0
71E0
70E0
70E0
79E0
3FE0
1EE0
0000
0000
0000
0000
0000
0000
ENDCHAR

STARTCHAR aring
ENCODING 229
SWIDTH 361 0
DWIDTH 12 0
BBX 12 30 0 -6
BITMAP
0000
0000
0000
0000
0000
0000
0000
1F80
39C0
1F80
0000
0000
3F80
3FC0
01E0
00E0
1EE0
3FE0
71E0
70E0
70E0
79E0
3FE0
1EE0
0000
0000
0000
0000
0000
0000
ENDCHAR

STARTCHAR ae
ENCODING 230
SWIDTH 361 0
DWIDTH 12 0
BBX 12 30 0 -6
BITMAP
0000
0000
0000
0000
0000
0000
0000
0000
0000
0000
0000
0000
3DC0
3FE0
0660
0660
0660
3FE0
7FE0
6600
6600
6660
7FE0
3DC0
0000
0000
0000
0000
0000
0000
ENDCHAR

STARTCHAR ccedilla
ENCODING 231
SWIDTH 361 0
DWIDTH 12 0
BBX 12 30 0 -6
BITMAP
0000
0000
0000
0000
0000
0000
0000
0000
0000
0000
0000
0000
1F80
3FC0
79E0
70E0
7000
7000
7000
7000
70E0
79E0
3FC0
1F80
0E00
1C00
3800
0000
0000
0000
ENDCHAR

STARTCHAR egrave
ENCODING 232
SWIDTH 361 0
DWIDTH 12 0
BBX 12 30 0 -6
BITMAP
0000
0000
0000
0000
0000
0000
0000
1C00
0E00
0700
0000
0000
1F80
3FC0
79E0
70E0
7FE0
7FE0
7000
7000
70E0
79E0
3FC0
1F80
0000
0000
0000
0000
0000
0000
ENDCHAR

STARTCHAR eacute
ENCODING 233
SWIDTH 361 0
DWIDTH 12 0
BBX 12 30 0 -6
BITMAP
0000
0000
0000
0000
0000
0000
0000
01C0
0380
0700
0000
0000
1F80
3FC0
79E0
70E0
7FE0
7FE0
7000
7000
70E0
79E0
3FC0
1F80
0000
0000
0000
0000
0000
0000
ENDCHAR

STARTCHAR ecircumflex
ENCODING 234
SWIDTH 361 0
DWIDTH 12 0
BBX 12 30 0 -6
BITMAP
0000
0000
0000
0000
0000
0000
0000
0600
0F00
1D80
0000
0000
1F80
3FC0
79E0
70E0
7FE0
7FE0
7000
7000
70E0
79E0
3FC0
1F80
0000
0000
0000
0000
0000
0000
ENDCHAR

STARTCHAR edieresis
ENCODING 235
SWIDTH 361 0
DWIDTH 12 0
BBX 12 30 0 -6
BITMAP
0000
0000
0000
0000
0000
0000
0000
39C0
39C0
39C0
0000
0000
1F80
3FC0
79E0
70E0
7FE0
7FE0
7000
7000
70E0
79E0
3FC0
1F80
0000
0000
0000
0000
0000
0000
ENDCHAR

STARTCHAR igrave
ENCODING 236
SWIDTH 361 0
DWIDTH 12 0
BBX 12 30 0 -6
BITMAP
0000
0000
0000
0000
0000
0000
0000
1C00
0E00
0700
0000
0000
3F00
3F00
0700
0700
0700
0700
0700
0700
0700
0700
3FE0
3FE0
0000
0000
0000
0000
0000
0000
ENDCHAR

STARTCHAR iacute
ENCODING 237
SWIDTH 361 0
DWIDTH 12 0
BBX 12 30 0 -6
BITMAP
0000
0000
0000
0000
0000
0000
0000
0380
0700
0E00
0000
0000
3F00
3F00
0700
0700
0700
0700
0700
0700
0700
0700
3FE0
3FE0
0000
0000
0000
0000
0000
0000
ENDCHAR

STARTCHAR icircumflex
ENCODING 238
SWIDTH 361 0
DWIDTH 12 0
BBX 12 30 0 -6
BITMAP
0000
0000
0000
0000
0000
0000
0000
0600
0F00
1D80
0000
0000
3F00
3F00
0700
0700
0700
0700
0700
0700
0700
0700
3FE0
3FE0
0000
0000
0000
0000
0000
0000
ENDCHAR

STARTCHAR idieresis
ENCODING 239
SWIDTH 361 0
DWIDTH 12 0
BBX 12 30 0 -6
BITMAP
0000
0000
0000
0000
0000
0000
0000
39C0
39C0
39C0
0000
0000
3F00
3F00
0700
0700
0700
0700
0700
0700
0700
0700
3FE0
3FE0
0000
0000
0000
0000
0000
0000
ENDCHAR

STARTCHAR gbreve
ENCODING 240
SWIDTH 361 0
DWIDTH 12 0
BBX 12 30 0 -6
BITMAP
0000
0000
0000
0000
0000
0000
1DC0
1DC0
1FC0
0F80
0000
0000
1FE0
3FE0
79E0
70E0
70E0
70E0
70E0
70E0
79E0
3FE0
1EE0
00E0
01C0
03C0
3F80
3F00
0000
0000
ENDCHAR

STARTCHAR ntilde
ENCODING 241
SWIDTH 361 0
DWIDTH 12 0
BBX 12 30 0 -6
BITMAP
0000
0000
0000
0000
0000
0000
0000
0760
0FC0
1B80
0000
0000
7780
7FC0
79E0
70E0
70E0
70E0
70E0
70E0
70E0
70E0
70E0
70E0
0000
0000
0000
0000
0000
0000
ENDCHAR

STARTCHAR ograve
ENCODING 242
SWIDTH 361 0
DWIDTH 12 0
BBX 12 30 0 -6
BITMAP
0000
0000
0000
0000
0000
0000
0000
1C00
0E00
0700
0000
0000
1F80
3FC0
79E0
70E0
70E0
70E0
70E0
70E0
70E0
79E0
3FC0
1F80
0000
0000
0000
0000
0000
0000
ENDCHAR

STARTCHAR oacute
ENCODING 243
SWIDTH 361 0
DWIDTH 12 0
BBX 12 30 0 -6
BITMAP
0000
0000
0000
0000
0000
0000
0000
01C0
0380
0700
0000
0000
1F80
3FC0
79E0
70E0
70E0
70E0
70E0
70E0
70E0
79E0
3FC0
1F80
0000
0000
0000
0000
0000
0000
ENDCHAR

STARTCHAR ocircumflex
ENCODING 244
SWIDTH 361 0
DWIDTH 12 0
BBX 12 30 0 -6
BITMAP
0000
0000
0000
0000
0000
0000
0000
0600
0F00
1D80
0000
0000
1F80
3FC0
79E0
70E0
70E0
70E0
70E0
70E0
70E0
79E0
3FC0
1F80
0000
0000
0000
0000
0000
0000
ENDCHAR

STARTCHAR otilde
ENCODING 245
SWIDTH 361 0
DWIDTH 12 0
BBX 12 30 0 -6
BITMAP
0000
0000
0000
0000
0000
0000
0000
0EC0
1F80
3700
0000
0000
1F80
3FC0
79E0
70E0
70E0
70E0
70E0
70E0
70E0
79E0
3FC0
1F80
0000
0000
0000
0000
0000
0000
ENDCHAR

STARTCHAR odieresis
ENCODING 246
SWIDTH 361 0
DWIDTH 12 0
BBX 12 30 0 -6
BITMAP
0000
0000
0000
0000
0000
0000
0000
39C0
39C0
39C0
0000
0000
1F80
3FC0
79E0
70E0
70E0
70E0
70E0
70E0
70E0
79E0
3FC0
1F80
0000
0000
0000
0000
0000
0000
ENDCHAR

STARTCHAR divide
ENCODING 247
SWIDTH 361 0
DWIDTH 12 0
BBX 12 30 0 -6
BITMAP
0000
0000
0000
0000
0000
0000
0000
0000
0000
0000
0700
0700
0700
0000
7FF0
7FF0
7FF0
0000
0700
0700
0700
0000
0000
0000
0000
0000
0000
0000
0000
0000
ENDCHAR

STARTCHAR oslash
ENCODING 248
SWIDTH 361 0
DWIDTH 12 0
BBX 12 30 0 -6
BITMAP
0000
0000
0000
0000
0000
0000
0000
0000
0000
0000
00C0
00C0
1F80
3FC0
79E0
73E0
72E0
76E0
76E0
74E0
7CE0
79E0
3FC0
1F80
3000
3000
0000
0000
0000
0000
ENDCHAR

STARTCHAR ugrave
ENCODING 249
SWIDTH 361 0
DWIDTH 12 0
BBX 12 30 0 -6
BITMAP
0000
0000
0000
0000
0000
0000
0000
1C00
0E00
0700
0000
0000
70E0
70E0
70E0
70E0
70E0
70E0
70E0
70E0
70E0
79E0
3FE0
1EE0
0000
0000
0000
0000
0000
0000
ENDCHAR

STARTCHAR uacute
ENCODING 250
SWIDTH 361 0
DWIDTH 12 0
BBX 12 30 0 -6
BITMAP
0000
0000
0000
0000
0000
0000
0000
0380
0700
0E00
0000
0000
70E0
70E0
70E0
70E0
70E0
70E0
70E0
70E0
70E0
79E0
3FE0
1EE0
0000
0000
0000
0000
0000
0000
ENDCHAR

STARTCHAR ucircumflex
ENCODING 251
SWIDTH 361 0
DWIDTH 12 0
BBX 12 30 0 -6
BITMAP
0000
0000
0000
0000
0000
0000
0000
0600
0F00
1D80
0000
0000
70E0
70E0
70E0
70E0
70E0
70E0
70E0
70E0
70E0
79E0
3FE0
1EE0
0000
0000
0000
0000
0000
0000
ENDCHAR

STARTCHAR udieresis
ENCODING 252
SWIDTH 361 0
DWIDTH 12 0
BBX 12 30 0 -6
BITMAP
0000
0000
0000
0000
0000
0000
0000
39C0
39C0
39C0
0000
0000
70E0
70E0
70E0
70E0
70E0
70E0
70E0
70E0
70E0
79E0
3FE0
1EE0
0000
0000
0000
0000
0000
0000
ENDCHAR

STARTCHAR dotlessi
ENCODING 253
SWIDTH 361 0
DWIDTH 12 0
BBX 12 30 0 -6
BITMAP
0000
0000
0000
0000
0000
0000
0000
0000
0000
0000
0000
0000
3F00
3F00
0700
0700
0700
0700
0700
0700
0700
0700
3FE0
3FE0
0000
0000
0000
0000
0000
0000
ENDCHAR

STARTCHAR scedilla
ENCODING 254
SWIDTH 361 0
DWIDTH 12 0
BBX 12 30 0 -6
BITMAP
0000
0000
0000
0000
0000
0000
0000
0000
0000
0000
0000
0000
1F80
3FC0
79E0
70E0
7C00
3F80
1FC0
03E0
70E0
79E0
3FC0
1F80
0700
0E00
0000
0000
0000
0000
ENDCHAR

STARTCHAR ydieresis
ENCODING 255
SWIDTH 361 0
DWIDTH 12 0
BBX 12 30 0 -6
BITMAP
0000
0000
0000
0000
0000
0000
0000
39C0
39C0
39C0
0000
0000
70E0
70E0
70E0
70E0
70E0
38E0
39C0
1DC0
1F80
0F80
0700
0700
0E00
3C00
3800
0000
0000
0000
ENDCHAR
ENDFONT
